# xmcd
#
# Track frame offsets:
#	150
#	24850
#	43083
#	62810
#	84597
#	102755
#	123823
#	144960
#	161410
#	182609
#	199548
#	217140
#	232931
#	245169
#
# Disc length: 3611 seconds
#
# Revision: 3065535028
# Processed by: cddbd v1.5.2PL0 Copyright (c) Steve Scherf et al.
# Submitted via: EZCDAudioConverter 8.5.0.1
#
DISCID=b50e190e
DTITLE=Travis Tritt - The Calm After...
DYEAR=2013
DGENRE=Country
TTITLE0=Mudcat Moan [Prelude] - You Never Take Me Dancing
TTITLE1=(I Wanna) Feel Too Much
TTITLE2=Doesn't The Good Outweigh The Bad
TTITLE3=Sometimes Love Just Ain't Enough (Featuring Tyler Reese Tritt)
TTITLE4=What If Love Hangs On
TTITLE5=Rub Off On Me
TTITLE6=Stay With Me
TTITLE7=Something Stronger Than Me
TTITLE8=The Storm
TTITLE9=I Don't Know How I Got By
TTITLE10=The Pressure Is On
TTITLE11=Should've Listened
TTITLE12=High Time For Gettin' Down
TTITLE13=Somehow, Somewhere, Someway
EXTD=
EXTT0=
EXTT1=
EXTT2=
EXTT3=
EXTT4=
EXTT5=
EXTT6=
EXTT7=
EXTT8=
EXTT9=
EXTT10=
EXTT11=
EXTT12=
EXTT13=
PLAYORDER=
